# xmcd
#
# Track frame offsets:
#   150
#   15986
#   29042
#   45706
#   59375
#   71927
#   87343
#   104468
#   121452
#   136414
#   155917
#   173518
#   190065
#   206269
#   220759
#   234700
#   252027
#   268339
#   284030
#   300425
#   315197
#   329307
#
# Disc length: 4667 seconds
#
# Revision: 0
# Processed by: cddbd v1.5.2PL0 Copyright (c) Steve Scherf et al.
# Submitted via: uFREEDB ActiveX Control 1.5
#
DISCID=43123916
DTITLE=1 - 1
DYEAR=2004
DGENRE=Alternative
TTITLE0=trnbhtrs
TTITLE1=wtbh
TTITLE2=srb
TTITLE3=sbh
TTITLE4=b d
TTITLE5=dzrb 
TTITLE6=dz 
TTITLE7=asg 
TTITLE8=sagd
TTITLE9=sadg 
TTITLE10=asdg 
TTITLE11=sdf v
TTITLE12=aWFD
TTITLE13=awdf
TTITLE14=aWDC
TTITLE15=Ad
TTITLE16=d fea
TTITLE17=f e
TTITLE18=f as 
TTITLE19=asf a
TTITLE20=asf 
TTITLE21=asf 
EXTD=
EXTT0=
EXTT1=
EXTT2=
EXTT3=
EXTT4=
EXTT5=
EXTT6=
EXTT7=
EXTT8=
EXTT9=
EXTT10=
EXTT11=
EXTT12=
EXTT13=
EXTT14=
EXTT15=
EXTT16=
EXTT17=
EXTT18=
EXTT19=
EXTT20=
EXTT21=
PLAYORDER=
